<mxfile host="Electron" agent="Mozilla/5.0 (X11; Linux x86_64) AppleWebKit/537.36 (KHTML, like Gecko) draw.io/28.1.2 Chrome/138.0.7204.243 Electron/37.4.0 Safari/537.36" version="28.1.2">
  <diagram name="Seite-1" id="L2w308fRFKuACmfVMeDd">
    <mxGraphModel dx="1219" dy="1183" grid="1" gridSize="10" guides="1" tooltips="1" connect="1" arrows="1" fold="1" page="1" pageScale="1" pageWidth="540" pageHeight="420" math="0" shadow="0">
      <root>
        <mxCell id="0" />
        <mxCell id="1" parent="0" />
        <mxCell id="bO4cj00JHxBitIa0UD0s-28" style="edgeStyle=orthogonalEdgeStyle;shape=connector;rounded=0;orthogonalLoop=1;jettySize=auto;html=1;strokeColor=default;align=center;verticalAlign=middle;fontFamily=Helvetica;fontSize=11;fontColor=default;labelBackgroundColor=default;endArrow=block;endFill=1;entryX=0.5;entryY=0;entryDx=0;entryDy=0;" parent="1" source="bO4cj00JHxBitIa0UD0s-1" edge="1">
          <mxGeometry relative="1" as="geometry">
            <Array as="points">
              <mxPoint x="120" y="70" />
              <mxPoint x="120" y="70" />
            </Array>
            <mxPoint x="120" y="79.99999999999989" as="targetPoint" />
          </mxGeometry>
        </mxCell>
        <mxCell id="bO4cj00JHxBitIa0UD0s-1" value="Übelkeit/Erbrechen" style="rounded=1;whiteSpace=wrap;html=1;arcSize=50;fillColor=#111111;fontColor=#F7F7F7;fontFamily=&quot;Roboto&quot;, &quot;Helvetica Neue&quot;, sans-serif;fontSize=14;fontStyle=1;labelBackgroundColor=none;strokeColor=default;" parent="1" vertex="1">
          <mxGeometry width="540" height="60" as="geometry" />
        </mxCell>
        <mxCell id="bO4cj00JHxBitIa0UD0s-31" style="edgeStyle=orthogonalEdgeStyle;shape=connector;rounded=0;orthogonalLoop=1;jettySize=auto;html=1;strokeColor=default;align=center;verticalAlign=middle;fontFamily=Helvetica;fontSize=11;fontColor=default;labelBackgroundColor=default;endArrow=block;endFill=1;" parent="1" edge="1">
          <mxGeometry relative="1" as="geometry">
            <mxPoint x="239.9999999999999" y="110" as="sourcePoint" />
            <mxPoint x="300" y="110" as="targetPoint" />
          </mxGeometry>
        </mxCell>
        <mxCell id="bO4cj00JHxBitIa0UD0s-32" value="NEIN" style="edgeLabel;html=1;align=center;verticalAlign=middle;resizable=0;points=[];fontFamily=Helvetica;fontSize=11;fontColor=default;labelBackgroundColor=default;" parent="bO4cj00JHxBitIa0UD0s-31" vertex="1" connectable="0">
          <mxGeometry x="-0.7795" y="-2" relative="1" as="geometry">
            <mxPoint x="19" y="-2" as="offset" />
          </mxGeometry>
        </mxCell>
        <mxCell id="bO4cj00JHxBitIa0UD0s-22" value="Aromatherapie" style="rounded=0;whiteSpace=wrap;html=1;fillColor=#dae8fc;strokeColor=#6c8ebf;fontFamily=&quot;Roboto&quot;, &quot;Helvetica Neue&quot;, sans-serif;fontSize=14;fontColor=default;labelBackgroundColor=none;" parent="1" vertex="1">
          <mxGeometry x="300" y="189.9999999999999" width="240" height="40" as="geometry" />
        </mxCell>
        <UserObject label="Relevante Übelkeit?" link="/?action=relevant" id="VgdP7V1OxryVakJov2ZO-2">
          <mxCell style="shape=hexagon;perimeter=hexagonPerimeter2;whiteSpace=wrap;html=1;fixedSize=1;fontSize=14;fontFamily=&quot;Roboto&quot;, &quot;Helvetica Neue&quot;, sans-serif;size=20;dashed=1;fontColor=default;labelBackgroundColor=none;" parent="1" vertex="1">
            <mxGeometry y="80" width="240" height="60" as="geometry" />
          </mxCell>
        </UserObject>
        <mxCell id="VgdP7V1OxryVakJov2ZO-3" value="Keine Intervention" style="rounded=1;whiteSpace=wrap;html=1;arcSize=50;fillColor=#111111;fontColor=#F7F7F7;fontFamily=&quot;Roboto&quot;, &quot;Helvetica Neue&quot;, sans-serif;fontSize=14;fontStyle=1;labelBackgroundColor=none;strokeColor=default;" parent="1" vertex="1">
          <mxGeometry x="300" y="80" width="240" height="60" as="geometry" />
        </mxCell>
        <mxCell id="VgdP7V1OxryVakJov2ZO-4" style="edgeStyle=orthogonalEdgeStyle;shape=connector;rounded=0;orthogonalLoop=1;jettySize=auto;html=1;entryX=0.5;entryY=0;entryDx=0;entryDy=0;strokeColor=default;align=center;verticalAlign=middle;fontFamily=Helvetica;fontSize=11;fontColor=default;labelBackgroundColor=default;endArrow=block;endFill=1;" parent="1" edge="1">
          <mxGeometry relative="1" as="geometry">
            <mxPoint x="120" y="140" as="sourcePoint" />
            <mxPoint x="120" y="180" as="targetPoint" />
            <Array as="points">
              <mxPoint x="120" y="160" />
              <mxPoint x="120" y="160" />
            </Array>
          </mxGeometry>
        </mxCell>
        <mxCell id="VgdP7V1OxryVakJov2ZO-5" value="JA" style="edgeLabel;html=1;align=center;verticalAlign=middle;resizable=0;points=[];fontFamily=Helvetica;fontSize=11;fontColor=default;labelBackgroundColor=default;" parent="VgdP7V1OxryVakJov2ZO-4" vertex="1" connectable="0">
          <mxGeometry x="-0.0435" y="1" relative="1" as="geometry">
            <mxPoint x="-1" y="-1" as="offset" />
          </mxGeometry>
        </mxCell>
        <UserObject label="Aromatherapie situativ&lt;br&gt;anwendbar?" link="/?action=situativanw" id="VgdP7V1OxryVakJov2ZO-6">
          <mxCell style="shape=hexagon;perimeter=hexagonPerimeter2;whiteSpace=wrap;html=1;fixedSize=1;fontSize=14;fontFamily=&quot;Roboto&quot;, &quot;Helvetica Neue&quot;, sans-serif;size=20;dashed=1;fontColor=default;labelBackgroundColor=none;" parent="1" vertex="1">
            <mxGeometry y="180" width="240" height="60" as="geometry" />
          </mxCell>
        </UserObject>
        <mxCell id="VgdP7V1OxryVakJov2ZO-9" style="edgeStyle=orthogonalEdgeStyle;shape=connector;rounded=0;orthogonalLoop=1;jettySize=auto;html=1;strokeColor=default;align=center;verticalAlign=middle;fontFamily=Helvetica;fontSize=11;fontColor=default;labelBackgroundColor=default;endArrow=block;endFill=1;" parent="1" edge="1">
          <mxGeometry relative="1" as="geometry">
            <mxPoint x="240" y="209.58" as="sourcePoint" />
            <mxPoint x="300.0000000000001" y="209.58" as="targetPoint" />
          </mxGeometry>
        </mxCell>
        <mxCell id="VgdP7V1OxryVakJov2ZO-10" value="JA" style="edgeLabel;html=1;align=center;verticalAlign=middle;resizable=0;points=[];fontFamily=Helvetica;fontSize=11;fontColor=default;labelBackgroundColor=default;" parent="VgdP7V1OxryVakJov2ZO-9" vertex="1" connectable="0">
          <mxGeometry x="-0.7795" y="-2" relative="1" as="geometry">
            <mxPoint x="19" y="-2" as="offset" />
          </mxGeometry>
        </mxCell>
        <mxCell id="VgdP7V1OxryVakJov2ZO-12" value="Opiat-/Chemoassozierte&lt;br&gt;Übelkeit?" style="shape=hexagon;perimeter=hexagonPerimeter2;whiteSpace=wrap;html=1;fixedSize=1;fontSize=14;fontFamily=&quot;Roboto&quot;, &quot;Helvetica Neue&quot;, sans-serif;size=20;fontColor=default;labelBackgroundColor=none;" parent="1" vertex="1">
          <mxGeometry y="279.9999999999999" width="240" height="60" as="geometry" />
        </mxCell>
        <mxCell id="VgdP7V1OxryVakJov2ZO-14" style="edgeStyle=orthogonalEdgeStyle;shape=connector;rounded=0;orthogonalLoop=1;jettySize=auto;html=1;entryX=0.5;entryY=0;entryDx=0;entryDy=0;strokeColor=default;align=center;verticalAlign=middle;fontFamily=Helvetica;fontSize=11;fontColor=default;labelBackgroundColor=default;endArrow=block;endFill=1;" parent="1" edge="1">
          <mxGeometry relative="1" as="geometry">
            <mxPoint x="119.75" y="240" as="sourcePoint" />
            <mxPoint x="119.75" y="280" as="targetPoint" />
            <Array as="points">
              <mxPoint x="120" y="260" />
              <mxPoint x="120" y="260" />
            </Array>
          </mxGeometry>
        </mxCell>
        <mxCell id="VgdP7V1OxryVakJov2ZO-15" value="NEIN" style="edgeLabel;html=1;align=center;verticalAlign=middle;resizable=0;points=[];fontFamily=Helvetica;fontSize=11;fontColor=default;labelBackgroundColor=default;" parent="VgdP7V1OxryVakJov2ZO-14" vertex="1" connectable="0">
          <mxGeometry x="-0.0435" y="1" relative="1" as="geometry">
            <mxPoint x="-2" y="-1" as="offset" />
          </mxGeometry>
        </mxCell>
        <mxCell id="VgdP7V1OxryVakJov2ZO-17" style="edgeStyle=orthogonalEdgeStyle;shape=connector;rounded=0;orthogonalLoop=1;jettySize=auto;html=1;strokeColor=default;align=center;verticalAlign=middle;fontFamily=Helvetica;fontSize=11;fontColor=default;labelBackgroundColor=default;endArrow=block;endFill=1;" parent="1" edge="1">
          <mxGeometry relative="1" as="geometry">
            <mxPoint x="240" y="309.76" as="sourcePoint" />
            <mxPoint x="300.0000000000001" y="309.76" as="targetPoint" />
          </mxGeometry>
        </mxCell>
        <mxCell id="VgdP7V1OxryVakJov2ZO-18" value="JA" style="edgeLabel;html=1;align=center;verticalAlign=middle;resizable=0;points=[];fontFamily=Helvetica;fontSize=11;fontColor=default;labelBackgroundColor=default;" parent="VgdP7V1OxryVakJov2ZO-17" vertex="1" connectable="0">
          <mxGeometry x="-0.7795" y="-2" relative="1" as="geometry">
            <mxPoint x="19" y="-2" as="offset" />
          </mxGeometry>
        </mxCell>
        <mxCell id="VgdP7V1OxryVakJov2ZO-19" style="edgeStyle=orthogonalEdgeStyle;shape=connector;rounded=0;orthogonalLoop=1;jettySize=auto;html=1;entryX=0;entryY=0.5;entryDx=0;entryDy=0;strokeColor=default;align=center;verticalAlign=middle;fontFamily=Helvetica;fontSize=11;fontColor=default;labelBackgroundColor=default;endArrow=block;endFill=1;" parent="1" target="VgdP7V1OxryVakJov2ZO-22" edge="1">
          <mxGeometry relative="1" as="geometry">
            <mxPoint x="119.76" y="340" as="sourcePoint" />
            <mxPoint x="119.76" y="380" as="targetPoint" />
            <Array as="points">
              <mxPoint x="120" y="380" />
            </Array>
          </mxGeometry>
        </mxCell>
        <mxCell id="VgdP7V1OxryVakJov2ZO-20" value="NEIN" style="edgeLabel;html=1;align=center;verticalAlign=middle;resizable=0;points=[];fontFamily=Helvetica;fontSize=11;fontColor=default;labelBackgroundColor=default;" parent="VgdP7V1OxryVakJov2ZO-19" vertex="1" connectable="0">
          <mxGeometry x="-0.0435" y="1" relative="1" as="geometry">
            <mxPoint x="-65" y="-19" as="offset" />
          </mxGeometry>
        </mxCell>
        <UserObject label="SAA Ondensatron" link="/tabs/meds/ondensatron" id="VgdP7V1OxryVakJov2ZO-21">
          <mxCell style="shape=process;whiteSpace=wrap;html=1;backgroundOutline=1;size=0.05555555555555555;fillColor=#d5e8d4;strokeColor=#82b366;fontFamily=&quot;Roboto&quot;, &quot;Helvetica Neue&quot;, sans-serif;fontStyle=1;fontSize=14;textShadow=0;dashed=1;fontColor=default;labelBackgroundColor=none;" parent="1" vertex="1">
            <mxGeometry x="300" y="279.9999999999999" width="240" height="60" as="geometry" />
          </mxCell>
        </UserObject>
        <UserObject label="SAA Dimenhydrinat" link="/tabs/meds/dimenhydrinat" id="VgdP7V1OxryVakJov2ZO-22">
          <mxCell style="shape=process;whiteSpace=wrap;html=1;backgroundOutline=1;size=0.05555555555555555;fillColor=#d5e8d4;strokeColor=#82b366;fontFamily=&quot;Roboto&quot;, &quot;Helvetica Neue&quot;, sans-serif;fontStyle=1;fontSize=14;textShadow=0;dashed=1;fontColor=default;labelBackgroundColor=none;" parent="1" vertex="1">
            <mxGeometry x="300" y="350" width="240" height="60" as="geometry" />
          </mxCell>
        </UserObject>
        <mxCell id="LQJ_-I9uN-qzmDFlOrRo-1" style="edgeStyle=orthogonalEdgeStyle;rounded=0;orthogonalLoop=1;jettySize=auto;html=1;entryX=0.775;entryY=-0.017;entryDx=0;entryDy=0;entryPerimeter=0;" edge="1" parent="1" source="bO4cj00JHxBitIa0UD0s-22" target="VgdP7V1OxryVakJov2ZO-12">
          <mxGeometry relative="1" as="geometry">
            <Array as="points">
              <mxPoint x="420" y="260" />
              <mxPoint x="186" y="260" />
            </Array>
          </mxGeometry>
        </mxCell>
      </root>
    </mxGraphModel>
  </diagram>
</mxfile>
